#!OML:ASF E:\Steps\Project 1\Capture day 1\Session 2\Subject.ASF
:FULLY-SPECIFIED
:DEGREES
388
root 8.72844 16.3605 18.9571 -107.596 -88.6458 135.557
lowerback -27.9065 -3.79307 -7.09249
upperback -3.96807 -3.06871 -1.37775
thorax 11.2651 -1.8638 1.34403
lowerneck 0.858584 1.72063 -18.4816
upperneck 4.13114 1.50011 22.0956
head 0.654532 0.651778 10.1094
rclavicle 2.68359e-014 4.13472e-014
rhumerus -42.6952 -8.84629 -82.3808
rradius 33.449
rwrist -0.112974
rhand -3.44126 -50.5275
rfingers 7.12502
rthumb 22.2904 -79.2618
lclavicle 2.68359e-014 4.13472e-014
lhumerus -36.7374 -1.19355 82.0649
lradius 20.364
lwrist -3.4707
lhand -29.0232 -11.5308
lfingers 7.12502
lthumb -2.37415 18.4357
rfemur -31.1338 8.51836 18.8417
rtibia 21.1285
rfoot -24.0261 -10.4617
rtoes -33.3398
lfemur -33.016 -13.4721 -15.5887
ltibia 21.6423
lfoot -13.2102 0.552419
ltoes -32.2678
389
root 8.73233 16.3727 18.9481 -107.734 -88.6413 136.063
lowerback -28.1077 -3.83076 -7.37639
upperback -4.16379 -3.04734 -1.32335
thorax 11.1539 -1.86795 1.57327
lowerneck 0.993373 1.70943 -18.4625
upperneck 4.12875 1.46437 22.0633
head 0.638591 0.626643 10.0936
rclavicle 6.26172e-015 2.54444e-014
rhumerus -42.4907 -8.18813 -82.5738
rradius 33.911
rwrist 0.38622
rhand -5.73812 -51.4038
rfingers 7.12502
rthumb 20.0841 -80.3857
lclavicle 6.26172e-015 2.54444e-014
lhumerus -37.5224 -1.47922 82.049
lradius 20.1696
lwrist -3.98847
lhand -28.8684 -11.9386
lfingers 7.12502
lthumb -2.22466 18.0295
rfemur -31.4761 7.71508 19.0543
rtibia 20.98
rfoot -23.8489 -9.97572
rtoes -34.3559
lfemur -32.7445 -13.3659 -15.4617
ltibia 20.3004
lfoot -12.7627 0.635574
ltoes -32.3694
390
root 8.73922 16.3786 18.9536 -100.8 -88.6553 129.366
lowerback -28.1301 -3.82734 -7.53532
upperback -4.33018 -3.0096 -1.3757
thorax 10.9719 -1.85463 1.62357
lowerneck 1.07288 1.76706 -18.4843
upperneck 4.15787 1.52997 22.0421
head 0.618756 0.655215 10.0887
rclavicle -3.39922e-014 4.53229e-014
rhumerus -42.2608 -8.11442 -82.4242
rradius 34.4137
rwrist -0.198285
rhand -6.74877 -50.7483
rfingers 7.12502
rthumb 19.1124 -79.8292
lclavicle -3.39922e-014 4.53229e-014
lhumerus -38.176 -1.54066 81.8347
lradius 19.8827
lwrist -4.90646
lhand -28.6332 -12.1408
lfingers 7.12502
lthumb -1.9975 17.8296
rfemur -31.3216 8.26469 18.715
rtibia 20.127
rfoot -23.5693 -10.5849
rtoes -34.2743
lfemur -32.4377 -13.4544 -15.514
ltibia 19.1482
lfoot -12.3749 0.636569
ltoes -31.5129
391
root 8.75002 16.3801 18.9561 -98.296 -88.7238 127.073
lowerback -28.0899 -3.81735 -7.69509
upperback -4.49743 -2.97844 -1.3273
thorax 10.7634 -1.84416 1.78947
lowerneck 1.21162 1.81854 -18.593
upperneck 4.1946 1.57704 22.0246
head 0.593805 0.670569 10.1013
rclavicle -2.28602e-015 8.5875e-014
rhumerus -42.0794 -7.93139 -82.2701
rradius 34.8889
rwrist -0.272067
rhand -6.92918 -49.9948
rfingers 7.12502
rthumb 18.9389 -79.0928
lclavicle -2.28602e-015 8.5875e-014
lhumerus -38.8262 -1.68534 81.8004
lradius 19.6764
lwrist -5.62149
lhand -28.533 -12.0861
lfingers 7.12502
lthumb -1.90071 17.8852
rfemur -31.2446 8.77238 18.5348
rtibia 19.4071
rfoot -23.404 -11.0962
rtoes -34.1161
lfemur -32.1405 -13.302 -15.4499
ltibia 18.0576
lfoot -12.1643 0.423094
ltoes -30.4963
392
root 8.76312 16.377 18.9698 -89.8868 -88.8038 118.848
lowerback -28.027 -3.81373 -7.70316
upperback -4.61309 -2.99317 -1.3041
thorax 10.6002 -1.84876 1.82214
lowerneck 1.31493 1.84752 -18.6775
upperneck 4.23567 1.59709 22.0048
head 0.582345 0.674539 10.1093
rclavicle 3.70733e-014 5.88403e-014
rhumerus -41.8012 -7.5958 -82.2525
rradius 35.2927
rwrist 0.231692
rhand -5.59353 -49.7221
rfingers 7.12502
rthumb 20.2231 -78.6893
lclavicle 3.70733e-014 5.88403e-014
lhumerus -39.3767 -2.0498 81.9671
lradius 19.562
lwrist -5.91601
lhand -28.4191 -11.8036
lfingers 7.12502
lthumb -1.79064 18.1686
rfemur -31.225 8.75433 18.4101
rtibia 18.9157
rfoot -23.5234 -11.1423
rtoes -32.9666
lfemur -31.9303 -13.2217 -15.4792
ltibia 17.1029
lfoot -12.0339 0.242696
ltoes -30.4139
393
root 8.78769 16.372 19.0237 -59.8732 -88.5465 89.0411
lowerback -27.8242 -3.88337 -7.42028
upperback -4.71646 -3.18232 -1.44887
thorax 10.3741 -1.9208 1.44024
lowerneck 1.31906 1.86146 -18.705
upperneck 4.28537 1.61111 21.9718
head 0.592756 0.681526 10.103
rclavicle -5.76476e-015 -2.8625e-014
rhumerus -41.3655 -6.88778 -82.4744
rradius 35.4525
rwrist 1.09388
rhand -1.70026 -50.983
rfingers 7.12502
rthumb 23.9609 -79.5078
lclavicle -5.76476e-015 -2.8625e-014
lhumerus -39.6998 -2.1468 82.0228
lradius 19.2975
lwrist -6.29796
lhand -28.332 -11.4706
lfingers 7.12502
lthumb -1.70656 18.5023
rfemur -31.3872 7.58678 18.0011
rtibia 18.6912
rfoot -23.7992 -10.7678
rtoes -31.2882
lfemur -32.1366 -13.8024 -15.9093
ltibia 16.6184
lfoot -12.0148 0.424623
ltoes -33.192
394
root 8.80343 16.35 19.0175 -76.8124 -88.6973 106.198
lowerback -27.9134 -3.77136 -7.57914
upperback -4.7973 -3.00467 -1.3367
thorax 10.3234 -1.8451 1.72252
lowerneck 1.29208 1.8776 -18.6952
upperneck 4.34684 1.63246 21.9124
head 0.611174 0.694248 10.0805
rclavicle -1.22253e-014 -6.44062e-014
rhumerus -40.8885 -6.26467 -82.6041
rradius 35.5259
rwrist 1.37517
rhand -4.74958 -49.6897
rfingers 7.12502
rthumb 21.034 -78.569
lclavicle -1.22253e-014 -6.44062e-014
lhumerus -39.8764 -1.70358 81.7122
lradius 18.7089
lwrist -7.12697
lhand -28.2083 -11.9427
lfingers 7.12502
lthumb -1.58709 18.0311
rfemur -31.7549 8.23309 17.9852
rtibia 18.8119
rfoot -24.1099 -10.949
rtoes -30.7792
lfemur -31.8344 -13.1384 -15.8653
ltibia 15.7073
lfoot -12.1318 0.801555
ltoes -35.2794
395
root 8.82437 16.3423 19.0494 -39.472 -88.6402 68.9361
lowerback -27.6698 -3.88769 -7.19866
upperback -4.83091 -3.2918 -1.28781
thorax 10.1731 -1.96185 1.46864
lowerneck 1.27259 1.88577 -18.6642
upperneck 4.38242 1.64472 21.859
head 0.623173 0.702094 10.056
rclavicle 5.46658e-015 3.73715e-014
rhumerus -40.2385 -5.90711 -82.603
rradius 35.6055
rwrist 0.525397
rhand -8.56791 -49.9349
rfingers 7.12502
rthumb 17.3623 -79.1795
lclavicle 5.46658e-015 3.73715e-014
lhumerus -39.9088 -0.88414 81.069
lradius 17.9253
lwrist -8.38393
lhand -28.1698 -13.0352
lfingers 7.12502
lthumb -1.54987 16.9389
rfemur -31.5408 8.11368 17.9892
rtibia 18.2864
rfoot -24.2282 -11.528
rtoes -30.643
lfemur -32.0319 -13.4876 -15.7673
ltibia 15.5298
lfoot -12.0037 0.238813
ltoes -33.3034
396
root 8.83286 16.3157 19.0245 -52.1931 -88.7843 81.6236
lowerback -27.6791 -3.90056 -7.75645
upperback -4.75044 -3.14767 -1.15706
thorax 10.2903 -1.91575 1.98301
lowerneck 1.23887 1.87941 -18.6488
upperneck 4.40038 1.64172 21.8095
head 0.635882 0.702986 10.036
rclavicle -5.96354e-016 2.78299e-014
rhumerus -39.4756 -5.51185 -82.5965
rradius 35.5937
rwrist -0.237176
rhand -6.24819 -50.5391
rfingers 7.12502
rthumb 19.5938 -79.5718
lclavicle -5.96354e-016 2.78299e-014
lhumerus -39.7953 -0.0480229 80.5017
lradius 17.2055
lwrist -9.50793
lhand -27.7149 -13.2272
lfingers 7.12502
lthumb -1.11053 16.7496
rfemur -31.4133 9.23501 17.8267
rtibia 18.0516
rfoot -24.5414 -11.9611
rtoes -29.5896
lfemur -31.5534 -12.5963 -15.964
ltibia 14.8696
lfoot -11.716 -0.466661
ltoes -31.6951
397
root 8.8671 16.3047 19.0637 -28.7831 -88.2162 58.2028
lowerback -27.2544 -4.00998 -7.60551
upperback -4.7098 -3.3535 -1.23936
thorax 10.1293 -1.99915 1.74769
lowerneck 1.18329 1.84393 -18.5109
upperneck 4.41299 1.60151 21.744
head 0.660263 0.687543 9.98822
rclavicle 4.24405e-014 1.98785e-014
rhumerus -38.734 -5.25917 -82.6425
rradius 35.5145
rwrist -0.687076
rhand -7.27185 -50.5587
rfingers 7.12502
rthumb 18.6093 -79.6885
lclavicle 4.24405e-014 1.98785e-014
lhumerus -39.5228 0.640584 79.9604
lradius 16.5087
lwrist -10.4415
lhand -26.8941 -13.1926
lfingers 7.12502
lthumb -0.317769 16.7869
rfemur -31.5563 8.52284 17.5638
rtibia 18.2278
rfoot -24.8544 -12.1552
rtoes -29.0991
lfemur -31.9195 -13.1205 -16.2045
ltibia 14.9813
lfoot -11.4729 -0.799672
ltoes -32.5456
398
root 8.8913 16.286 19.0683 -24.9131 -88.1369 54.266
lowerback -27.0271 -3.92797 -7.6779
upperback -4.62102 -3.22579 -1.31126
thorax 10.103 -1.93781 1.76221
lowerneck 1.11728 1.79292 -18.34
upperneck 4.40689 1.54271 21.6974
head 0.685062 0.663704 9.94117
rclavicle 4.77083e-015 2.14687e-014
rhumerus -37.9915 -5.4782 -82.708
rradius 35.3446
rwrist -1.09598
rhand -8.3041 -50.7711
rfingers 7.12502
rthumb 17.6162 -79.9931
lclavicle 4.77083e-015 2.14687e-014
lhumerus -39.0818 1.40686 79.1491
lradius 15.6137
lwrist -11.6502
lhand -27.0261 -14.112
lfingers 7.12502
lthumb -0.44525 15.8673
rfemur -31.7008 7.78563 17.8179
rtibia 18.5572
rfoot -24.8514 -11.6974
rtoes -29.3814
lfemur -31.8309 -13.1472 -16.1932
ltibia 14.7091
lfoot -11.2161 -0.8093
ltoes -34.4036
399
root 8.9152 16.2683 19.0775 -25.4258 -87.8871 54.6466
lowerback -26.745 -3.77501 -7.79504
upperback -4.40465 -2.95992 -1.63324
thorax 10.1701 -1.81173 1.56708
lowerneck 0.889172 1.62073 -17.9853
upperneck 4.32675 1.34699 21.6778
head 0.747509 0.581919 9.8717
rclavicle -1.98785e-015 3.49861e-014
rhumerus -37.1408 -6.66583 -82.7246
rradius 35.1261
rwrist -0.880219
rhand -8.13948 -51.016
rfingers 7.12502
rthumb 17.7746 -80.2237
lclavicle -1.98785e-015 3.49861e-014
lhumerus -38.2467 1.65327 78.3817
lradius 14.6763
lwrist -12.4363
lhand -27.5668 -14.6069
lfingers 7.12502
lthumb -0.967537 15.3706
rfemur -31.6056 8.2908 17.4763
rtibia 18.5515
rfoot -24.6264 -12.446
rtoes -29.2175
lfemur -31.6893 -13.272 -16.4915
ltibia 14.537
lfoot -11.1519 -0.803148
ltoes -36.313
